<svg width="17" height="17" viewBox="0 0 17 17" fill="none" xmlns="http://www.w3.org/2000/svg">
<path d="M8.5 0C3.825 0 0 3.825 0 8.5C0 13.175 3.825 17 8.5 17C13.175 17 17 13.175 17 8.5C17 3.825 13.175 0 8.5 0ZM8.5 2.125C12.0275 2.125 14.875 4.9725 14.875 8.5C14.875 12.0275 12.0275 14.875 8.5 14.875C4.9725 14.875 2.125 12.0275 2.125 8.5C2.125 4.9725 4.9725 2.125 8.5 2.125ZM7.4375 4.25V8.9675L7.7775 9.24375L8.84 10.3062L9.5625 11.1138L11.0925 9.58375L10.285 8.86125L9.5625 8.13875V4.2925H7.4375V4.25Z" fill="black"/>
</svg>
