<svg width="18" height="15" viewBox="0 0 18 15" fill="none" xmlns="http://www.w3.org/2000/svg">
<path d="M8.57143 0C5.03572 0 2.14286 2.89286 2.14286 6.42857V8.57143H1.07143C0.787268 8.57143 0.514746 8.68431 0.313814 8.88524C0.112882 9.08617 0 9.3587 0 9.64286L0 13.9286C0 14.2127 0.112882 14.4853 0.313814 14.6862C0.514746 14.8871 0.787268 15 1.07143 15H3.21429C3.49845 15 3.77097 14.8871 3.9719 14.6862C4.17283 14.4853 4.28572 14.2127 4.28572 13.9286V6.42857C4.28572 4.05 6.19286 2.14286 8.57143 2.14286C10.95 2.14286 12.8571 4.05 12.8571 6.42857V13.9286C12.8571 14.2127 12.97 14.4853 13.171 14.6862C13.3719 14.8871 13.6444 15 13.9286 15H16.0714C16.3556 15 16.6281 14.8871 16.829 14.6862C17.03 14.4853 17.1429 14.2127 17.1429 13.9286V9.64286C17.1429 9.3587 17.03 9.08617 16.829 8.88524C16.6281 8.68431 16.3556 8.57143 16.0714 8.57143H15V6.42857C15 2.89286 12.1071 0 8.57143 0Z" fill="black"/>
</svg>
